<mxfile host="app.diagrams.net" modified="2023-09-12T18:00:01.088Z" agent="Mozilla/5.0 (Macintosh; Intel Mac OS X 10_15_7) AppleWebKit/605.1.15 (KHTML, like Gecko) Version/16.6 Safari/605.1.15" etag="eXYHDyPvMowtV0PkGvhV" version="21.7.4" type="device">
  <diagram name="Страница — 1" id="A454X-WaJSM07bg0Bf_U">
    <mxGraphModel dx="930" dy="1477" grid="1" gridSize="10" guides="1" tooltips="1" connect="1" arrows="1" fold="1" page="1" pageScale="1" pageWidth="827" pageHeight="1169" math="0" shadow="0">
      <root>
        <mxCell id="0" />
        <mxCell id="1" parent="0" />
        <mxCell id="6aa5XyEvFgft2z7EMY22-1" value="&amp;nbsp;Clinic" style="swimlane;whiteSpace=wrap;html=1;" vertex="1" parent="1">
          <mxGeometry x="80" y="430" width="200" height="200" as="geometry" />
        </mxCell>
        <mxCell id="6aa5XyEvFgft2z7EMY22-4" value="&lt;font style=&quot;font-size: 18px;&quot;&gt;clinic_id (PK)&lt;/font&gt;" style="text;html=1;align=center;verticalAlign=middle;resizable=0;points=[];autosize=1;strokeColor=none;fillColor=none;" vertex="1" parent="6aa5XyEvFgft2z7EMY22-1">
          <mxGeometry x="30" y="38" width="130" height="30" as="geometry" />
        </mxCell>
        <mxCell id="6aa5XyEvFgft2z7EMY22-7" value="&lt;font style=&quot;font-size: 18px;&quot;&gt;clinic_name&lt;/font&gt;" style="text;html=1;align=center;verticalAlign=middle;resizable=0;points=[];autosize=1;strokeColor=none;fillColor=none;" vertex="1" parent="6aa5XyEvFgft2z7EMY22-1">
          <mxGeometry x="35" y="85" width="120" height="30" as="geometry" />
        </mxCell>
        <mxCell id="6aa5XyEvFgft2z7EMY22-8" value="&lt;font style=&quot;font-size: 18px;&quot;&gt;clinic_adress&lt;/font&gt;" style="text;html=1;align=center;verticalAlign=middle;resizable=0;points=[];autosize=1;strokeColor=none;fillColor=none;" vertex="1" parent="6aa5XyEvFgft2z7EMY22-1">
          <mxGeometry x="35" y="130" width="130" height="30" as="geometry" />
        </mxCell>
        <mxCell id="6aa5XyEvFgft2z7EMY22-2" value="Doctor" style="swimlane;whiteSpace=wrap;html=1;" vertex="1" parent="1">
          <mxGeometry x="350" y="430" width="200" height="200" as="geometry" />
        </mxCell>
        <mxCell id="6aa5XyEvFgft2z7EMY22-5" value="&lt;font style=&quot;font-size: 18px;&quot;&gt;clinic_id (FK)&lt;/font&gt;" style="text;html=1;align=center;verticalAlign=middle;resizable=0;points=[];autosize=1;strokeColor=none;fillColor=none;" vertex="1" parent="6aa5XyEvFgft2z7EMY22-2">
          <mxGeometry x="30" y="155" width="130" height="30" as="geometry" />
        </mxCell>
        <mxCell id="6aa5XyEvFgft2z7EMY22-9" value="&lt;font style=&quot;font-size: 18px;&quot;&gt;doctor_id (PK)&lt;/font&gt;" style="text;html=1;align=center;verticalAlign=middle;resizable=0;points=[];autosize=1;strokeColor=none;fillColor=none;" vertex="1" parent="6aa5XyEvFgft2z7EMY22-2">
          <mxGeometry x="30" y="30" width="140" height="30" as="geometry" />
        </mxCell>
        <mxCell id="6aa5XyEvFgft2z7EMY22-10" value="&lt;font style=&quot;font-size: 18px;&quot;&gt;doctor_name&lt;/font&gt;" style="text;html=1;align=center;verticalAlign=middle;resizable=0;points=[];autosize=1;strokeColor=none;fillColor=none;" vertex="1" parent="6aa5XyEvFgft2z7EMY22-2">
          <mxGeometry x="35" y="70" width="130" height="30" as="geometry" />
        </mxCell>
        <mxCell id="6aa5XyEvFgft2z7EMY22-11" value="&lt;font style=&quot;font-size: 18px;&quot;&gt;doctor_speciality&lt;/font&gt;" style="text;html=1;align=center;verticalAlign=middle;resizable=0;points=[];autosize=1;strokeColor=none;fillColor=none;" vertex="1" parent="6aa5XyEvFgft2z7EMY22-2">
          <mxGeometry x="20" y="110" width="160" height="30" as="geometry" />
        </mxCell>
        <mxCell id="6aa5XyEvFgft2z7EMY22-3" value="Service" style="swimlane;whiteSpace=wrap;html=1;" vertex="1" parent="1">
          <mxGeometry x="610" y="430" width="200" height="200" as="geometry" />
        </mxCell>
        <mxCell id="6aa5XyEvFgft2z7EMY22-6" value="&lt;font style=&quot;font-size: 18px;&quot;&gt;clinic_id (FK)&lt;/font&gt;" style="text;html=1;align=center;verticalAlign=middle;resizable=0;points=[];autosize=1;strokeColor=none;fillColor=none;" vertex="1" parent="6aa5XyEvFgft2z7EMY22-3">
          <mxGeometry x="35" y="155" width="130" height="30" as="geometry" />
        </mxCell>
        <mxCell id="6aa5XyEvFgft2z7EMY22-12" value="&lt;font style=&quot;font-size: 18px;&quot;&gt;service_id (PK)&lt;/font&gt;" style="text;html=1;align=center;verticalAlign=middle;resizable=0;points=[];autosize=1;strokeColor=none;fillColor=none;" vertex="1" parent="6aa5XyEvFgft2z7EMY22-3">
          <mxGeometry x="25" y="30" width="150" height="30" as="geometry" />
        </mxCell>
        <mxCell id="6aa5XyEvFgft2z7EMY22-13" value="&lt;font style=&quot;font-size: 18px;&quot;&gt;service_name&lt;/font&gt;" style="text;html=1;align=center;verticalAlign=middle;resizable=0;points=[];autosize=1;strokeColor=none;fillColor=none;" vertex="1" parent="6aa5XyEvFgft2z7EMY22-3">
          <mxGeometry x="30" y="70" width="140" height="30" as="geometry" />
        </mxCell>
        <mxCell id="6aa5XyEvFgft2z7EMY22-14" value="&lt;font style=&quot;font-size: 18px;&quot;&gt;service_cost&lt;/font&gt;" style="text;html=1;align=center;verticalAlign=middle;resizable=0;points=[];autosize=1;strokeColor=none;fillColor=none;" vertex="1" parent="6aa5XyEvFgft2z7EMY22-3">
          <mxGeometry x="40" y="110" width="130" height="30" as="geometry" />
        </mxCell>
        <mxCell id="6aa5XyEvFgft2z7EMY22-15" value="" style="endArrow=none;html=1;rounded=0;" edge="1" parent="1">
          <mxGeometry width="50" height="50" relative="1" as="geometry">
            <mxPoint x="80" y="500" as="sourcePoint" />
            <mxPoint x="280" y="500" as="targetPoint" />
          </mxGeometry>
        </mxCell>
        <mxCell id="6aa5XyEvFgft2z7EMY22-16" value="" style="endArrow=classic;html=1;rounded=0;exitX=0;exitY=0.25;exitDx=0;exitDy=0;entryX=1;entryY=0.25;entryDx=0;entryDy=0;" edge="1" parent="1" source="6aa5XyEvFgft2z7EMY22-2" target="6aa5XyEvFgft2z7EMY22-1">
          <mxGeometry width="50" height="50" relative="1" as="geometry">
            <mxPoint x="360" y="740" as="sourcePoint" />
            <mxPoint x="410" y="690" as="targetPoint" />
          </mxGeometry>
        </mxCell>
        <mxCell id="6aa5XyEvFgft2z7EMY22-17" value="" style="endArrow=none;html=1;rounded=0;exitX=0;exitY=0.75;exitDx=0;exitDy=0;entryX=1;entryY=0.75;entryDx=0;entryDy=0;" edge="1" parent="1" source="6aa5XyEvFgft2z7EMY22-3" target="6aa5XyEvFgft2z7EMY22-3">
          <mxGeometry width="50" height="50" relative="1" as="geometry">
            <mxPoint x="360" y="740" as="sourcePoint" />
            <mxPoint x="410" y="690" as="targetPoint" />
          </mxGeometry>
        </mxCell>
        <mxCell id="6aa5XyEvFgft2z7EMY22-18" value="" style="endArrow=classic;html=1;rounded=0;" edge="1" parent="1">
          <mxGeometry width="50" height="50" relative="1" as="geometry">
            <mxPoint x="550" y="610" as="sourcePoint" />
            <mxPoint x="610" y="610" as="targetPoint" />
          </mxGeometry>
        </mxCell>
        <mxCell id="6aa5XyEvFgft2z7EMY22-19" value="Diag" style="swimlane;whiteSpace=wrap;html=1;" vertex="1" parent="1">
          <mxGeometry x="200" y="690" width="200" height="200" as="geometry" />
        </mxCell>
        <mxCell id="6aa5XyEvFgft2z7EMY22-21" value="&lt;font style=&quot;font-size: 18px;&quot;&gt;diag_id (PK)&lt;/font&gt;" style="text;html=1;align=center;verticalAlign=middle;resizable=0;points=[];autosize=1;strokeColor=none;fillColor=none;" vertex="1" parent="6aa5XyEvFgft2z7EMY22-19">
          <mxGeometry x="35" y="40" width="130" height="30" as="geometry" />
        </mxCell>
        <mxCell id="6aa5XyEvFgft2z7EMY22-23" value="&lt;font style=&quot;font-size: 18px;&quot;&gt;diag_name&lt;/font&gt;" style="text;html=1;align=center;verticalAlign=middle;resizable=0;points=[];autosize=1;strokeColor=none;fillColor=none;" vertex="1" parent="6aa5XyEvFgft2z7EMY22-19">
          <mxGeometry x="40" y="85" width="120" height="30" as="geometry" />
        </mxCell>
        <mxCell id="6aa5XyEvFgft2z7EMY22-31" value="" style="endArrow=none;html=1;rounded=0;" edge="1" parent="6aa5XyEvFgft2z7EMY22-19">
          <mxGeometry width="50" height="50" relative="1" as="geometry">
            <mxPoint y="80" as="sourcePoint" />
            <mxPoint x="200" y="80" as="targetPoint" />
          </mxGeometry>
        </mxCell>
        <mxCell id="6aa5XyEvFgft2z7EMY22-33" value="&lt;font style=&quot;font-size: 18px;&quot;&gt;patient_id (FK)&lt;/font&gt;" style="text;html=1;align=center;verticalAlign=middle;resizable=0;points=[];autosize=1;strokeColor=none;fillColor=none;" vertex="1" parent="6aa5XyEvFgft2z7EMY22-19">
          <mxGeometry x="25" y="120" width="150" height="30" as="geometry" />
        </mxCell>
        <mxCell id="6aa5XyEvFgft2z7EMY22-24" value="Patient" style="swimlane;whiteSpace=wrap;html=1;" vertex="1" parent="1">
          <mxGeometry x="480" y="690" width="200" height="320" as="geometry" />
        </mxCell>
        <mxCell id="6aa5XyEvFgft2z7EMY22-25" value="&lt;font style=&quot;font-size: 18px;&quot;&gt;patient_id (PK)&lt;/font&gt;" style="text;html=1;align=center;verticalAlign=middle;resizable=0;points=[];autosize=1;strokeColor=none;fillColor=none;" vertex="1" parent="6aa5XyEvFgft2z7EMY22-24">
          <mxGeometry x="25" y="40" width="150" height="30" as="geometry" />
        </mxCell>
        <mxCell id="6aa5XyEvFgft2z7EMY22-26" value="&lt;font style=&quot;font-size: 18px;&quot;&gt;patient_name&lt;/font&gt;" style="text;html=1;align=center;verticalAlign=middle;resizable=0;points=[];autosize=1;strokeColor=none;fillColor=none;" vertex="1" parent="6aa5XyEvFgft2z7EMY22-24">
          <mxGeometry x="30" y="80" width="140" height="30" as="geometry" />
        </mxCell>
        <mxCell id="6aa5XyEvFgft2z7EMY22-27" value="&lt;font style=&quot;font-size: 18px;&quot;&gt;patient_birthday&lt;/font&gt;" style="text;html=1;align=center;verticalAlign=middle;resizable=0;points=[];autosize=1;strokeColor=none;fillColor=none;" vertex="1" parent="6aa5XyEvFgft2z7EMY22-24">
          <mxGeometry x="20" y="120" width="160" height="30" as="geometry" />
        </mxCell>
        <mxCell id="6aa5XyEvFgft2z7EMY22-28" value="&lt;font style=&quot;font-size: 18px;&quot;&gt;patient_adress&lt;/font&gt;" style="text;html=1;align=center;verticalAlign=middle;resizable=0;points=[];autosize=1;strokeColor=none;fillColor=none;" vertex="1" parent="6aa5XyEvFgft2z7EMY22-24">
          <mxGeometry x="30" y="160" width="150" height="30" as="geometry" />
        </mxCell>
        <mxCell id="6aa5XyEvFgft2z7EMY22-29" value="&lt;font style=&quot;font-size: 18px;&quot;&gt;patient_telephone&lt;/font&gt;" style="text;html=1;align=center;verticalAlign=middle;resizable=0;points=[];autosize=1;strokeColor=none;fillColor=none;" vertex="1" parent="6aa5XyEvFgft2z7EMY22-24">
          <mxGeometry x="25" y="200" width="170" height="30" as="geometry" />
        </mxCell>
        <mxCell id="6aa5XyEvFgft2z7EMY22-30" value="&lt;font style=&quot;font-size: 18px;&quot;&gt;patient_email&lt;/font&gt;" style="text;html=1;align=center;verticalAlign=middle;resizable=0;points=[];autosize=1;strokeColor=none;fillColor=none;" vertex="1" parent="6aa5XyEvFgft2z7EMY22-24">
          <mxGeometry x="40" y="240" width="130" height="30" as="geometry" />
        </mxCell>
        <mxCell id="6aa5XyEvFgft2z7EMY22-32" value="" style="endArrow=none;html=1;rounded=0;" edge="1" parent="6aa5XyEvFgft2z7EMY22-24">
          <mxGeometry width="50" height="50" relative="1" as="geometry">
            <mxPoint y="80" as="sourcePoint" />
            <mxPoint x="200" y="80" as="targetPoint" />
          </mxGeometry>
        </mxCell>
        <mxCell id="6aa5XyEvFgft2z7EMY22-34" value="&lt;font style=&quot;font-size: 18px;&quot;&gt;doctor_id (FK)&lt;/font&gt;" style="text;html=1;align=center;verticalAlign=middle;resizable=0;points=[];autosize=1;strokeColor=none;fillColor=none;" vertex="1" parent="6aa5XyEvFgft2z7EMY22-24">
          <mxGeometry x="35" y="280" width="140" height="30" as="geometry" />
        </mxCell>
        <mxCell id="6aa5XyEvFgft2z7EMY22-35" value="" style="endArrow=classic;html=1;rounded=0;exitX=1;exitY=0.25;exitDx=0;exitDy=0;" edge="1" parent="1" source="6aa5XyEvFgft2z7EMY22-2">
          <mxGeometry width="50" height="50" relative="1" as="geometry">
            <mxPoint x="500" y="660" as="sourcePoint" />
            <mxPoint x="480" y="990" as="targetPoint" />
            <Array as="points">
              <mxPoint x="570" y="480" />
              <mxPoint x="570" y="640" />
              <mxPoint x="450" y="640" />
              <mxPoint x="450" y="990" />
            </Array>
          </mxGeometry>
        </mxCell>
        <mxCell id="6aa5XyEvFgft2z7EMY22-36" value="" style="endArrow=none;html=1;rounded=0;" edge="1" parent="1">
          <mxGeometry width="50" height="50" relative="1" as="geometry">
            <mxPoint x="480" y="970" as="sourcePoint" />
            <mxPoint x="680" y="970" as="targetPoint" />
          </mxGeometry>
        </mxCell>
        <mxCell id="6aa5XyEvFgft2z7EMY22-37" value="" style="endArrow=none;html=1;rounded=0;" edge="1" parent="1">
          <mxGeometry width="50" height="50" relative="1" as="geometry">
            <mxPoint x="350" y="490" as="sourcePoint" />
            <mxPoint x="550" y="490" as="targetPoint" />
          </mxGeometry>
        </mxCell>
        <mxCell id="6aa5XyEvFgft2z7EMY22-38" value="" style="endArrow=classic;html=1;rounded=0;" edge="1" parent="1">
          <mxGeometry width="50" height="50" relative="1" as="geometry">
            <mxPoint x="480" y="750" as="sourcePoint" />
            <mxPoint x="400" y="820" as="targetPoint" />
            <Array as="points">
              <mxPoint x="440" y="750" />
              <mxPoint x="440" y="820" />
            </Array>
          </mxGeometry>
        </mxCell>
        <mxCell id="6aa5XyEvFgft2z7EMY22-39" value="" style="endArrow=none;html=1;rounded=0;" edge="1" parent="1">
          <mxGeometry width="50" height="50" relative="1" as="geometry">
            <mxPoint x="200" y="810" as="sourcePoint" />
            <mxPoint x="400" y="810" as="targetPoint" />
          </mxGeometry>
        </mxCell>
        <mxCell id="6aa5XyEvFgft2z7EMY22-40" value="Extract" style="swimlane;whiteSpace=wrap;html=1;" vertex="1" parent="1">
          <mxGeometry x="200" y="940" width="200" height="200" as="geometry" />
        </mxCell>
        <mxCell id="6aa5XyEvFgft2z7EMY22-41" value="&lt;font style=&quot;font-size: 18px;&quot;&gt;doctor_id (FK)&lt;/font&gt;" style="text;html=1;align=center;verticalAlign=middle;resizable=0;points=[];autosize=1;strokeColor=none;fillColor=none;" vertex="1" parent="6aa5XyEvFgft2z7EMY22-40">
          <mxGeometry x="35" y="30" width="140" height="30" as="geometry" />
        </mxCell>
        <mxCell id="6aa5XyEvFgft2z7EMY22-42" value="&lt;font style=&quot;font-size: 18px;&quot;&gt;patient_id (FK)&lt;/font&gt;" style="text;html=1;align=center;verticalAlign=middle;resizable=0;points=[];autosize=1;strokeColor=none;fillColor=none;" vertex="1" parent="6aa5XyEvFgft2z7EMY22-40">
          <mxGeometry x="30" y="60" width="150" height="30" as="geometry" />
        </mxCell>
        <mxCell id="6aa5XyEvFgft2z7EMY22-22" value="&lt;font style=&quot;font-size: 18px;&quot;&gt;extract_date&lt;/font&gt;" style="text;html=1;align=center;verticalAlign=middle;resizable=0;points=[];autosize=1;strokeColor=none;fillColor=none;" vertex="1" parent="6aa5XyEvFgft2z7EMY22-40">
          <mxGeometry x="30" y="90" width="130" height="30" as="geometry" />
        </mxCell>
        <mxCell id="6aa5XyEvFgft2z7EMY22-47" value="&lt;font style=&quot;font-size: 18px;&quot;&gt;survey result&lt;/font&gt;" style="text;html=1;align=center;verticalAlign=middle;resizable=0;points=[];autosize=1;strokeColor=none;fillColor=none;" vertex="1" parent="6aa5XyEvFgft2z7EMY22-40">
          <mxGeometry x="30" y="120" width="130" height="30" as="geometry" />
        </mxCell>
        <mxCell id="6aa5XyEvFgft2z7EMY22-48" value="" style="endArrow=classic;html=1;rounded=0;" edge="1" parent="1">
          <mxGeometry width="50" height="50" relative="1" as="geometry">
            <mxPoint x="200" y="850" as="sourcePoint" />
            <mxPoint x="200" y="1020" as="targetPoint" />
            <Array as="points">
              <mxPoint x="160" y="850" />
              <mxPoint x="160" y="1020" />
            </Array>
          </mxGeometry>
        </mxCell>
        <mxCell id="6aa5XyEvFgft2z7EMY22-49" value="" style="endArrow=none;html=1;rounded=0;" edge="1" parent="1">
          <mxGeometry width="50" height="50" relative="1" as="geometry">
            <mxPoint x="200" y="1000" as="sourcePoint" />
            <mxPoint x="400" y="1000" as="targetPoint" />
          </mxGeometry>
        </mxCell>
        <mxCell id="6aa5XyEvFgft2z7EMY22-50" value="" style="endArrow=none;html=1;rounded=0;" edge="1" parent="1">
          <mxGeometry width="50" height="50" relative="1" as="geometry">
            <mxPoint x="210" y="1030" as="sourcePoint" />
            <mxPoint x="400" y="1030" as="targetPoint" />
          </mxGeometry>
        </mxCell>
      </root>
    </mxGraphModel>
  </diagram>
</mxfile>
